<?xml version="1.0" standalone="no"?>
<!DOCTYPE svg PUBLIC "-//W3C//DTD SVG 20010904//EN"
 "http://www.w3.org/TR/2001/REC-SVG-20010904/DTD/svg10.dtd">
<svg version="1.0" xmlns="http://www.w3.org/2000/svg"
 width="260.000000pt" height="202.000000pt" viewBox="0 0 260.000000 202.000000"
 preserveAspectRatio="xMidYMid meet">

<g transform="translate(0.000000,202.000000) scale(0.100000,-0.100000)"
fill="#000000" stroke="none">
<path d="M0 1010 l0 -1010 1300 0 1300 0 0 1010 0 1010 -1300 0 -1300 0 0
-1010z m1167 729 c136 -78 288 -164 337 -192 l89 -50 -27 -14 c-26 -14 -37 -8
-337 162 l-310 176 -311 -183 -311 -183 6 -185 c4 -102 7 -262 7 -356 l0 -171
310 -176 310 -175 306 180 c294 172 308 179 336 167 33 -13 65 8 -444 -291
l-196 -116 -335 189 -334 189 -6 263 c-4 144 -7 318 -7 387 l0 126 333 196
c182 108 333 197 334 197 0 1 113 -62 250 -140z m44 -110 c156 -88 288 -164
293 -170 30 -29 -40 7 -294 151 -156 88 -287 160 -291 160 -11 0 -552 -319
-565 -333 -8 -9 -10 -109 -6 -342 l4 -330 289 -163 289 -164 276 162 c152 90
286 165 298 167 21 5 21 5 1 -9 -11 -8 -145 -88 -297 -177 l-278 -163 -297
169 -298 168 -3 346 -2 347 287 170 c159 94 293 171 299 171 6 1 139 -71 295
-160z m-10 -239 c18 -10 19 -23 19 -200 l0 -190 -285 0 -285 0 0 190 c0 169 2
190 18 199 23 14 507 14 533 1z m329 -206 c0 -91 3 -110 21 -135 11 -16 24
-29 29 -29 5 0 18 15 29 34 18 28 21 49 21 135 l0 101 35 0 35 0 0 -107 c0
-100 2 -110 25 -138 l25 -30 25 30 c22 27 25 40 27 135 l3 105 33 3 32 3 0
-123 0 -123 -43 -52 c-36 -45 -47 -53 -76 -53 -27 0 -41 7 -61 32 l-27 33 -28
-33 c-43 -51 -79 -45 -132 21 l-43 52 0 123 0 122 35 0 35 0 0 -106z m672 89
c16 -14 18 -33 18 -156 0 -184 6 -177 -153 -177 -162 0 -157 -6 -157 167 0
187 -3 183 153 183 98 0 124 -3 139 -17z m-1007 -312 c54 -1 55 -2 55 -30 0
-64 17 -61 -309 -61 -218 0 -300 3 -309 12 -7 7 -12 27 -12 45 l0 33 203 2
c111 2 228 2 260 2 31 -1 82 -2 112 -3z"/>
<path d="M818 1342 l-118 -3 0 -139 0 -140 235 0 235 0 0 140 0 140 -62 1
c-35 1 -88 2 -118 3 -30 1 -108 0 -172 -2z m180 -94 c63 -22 75 -34 46 -45
-12 -5 -10 -12 16 -38 29 -30 30 -32 12 -48 -17 -16 -20 -15 -47 13 -25 26
-29 28 -40 13 -14 -19 -17 -15 -44 57 -31 82 -34 80 57 48z"/>
<path d="M1987 1213 c-4 -3 -7 -51 -7 -105 l0 -98 85 0 85 0 0 105 0 105 -78
0 c-43 0 -82 -3 -85 -7z"/>
<path d="M882 918 c3 -8 26 -14 56 -16 42 -2 52 0 52 12 0 13 -12 16 -56 16
-40 0 -55 -4 -52 -12z"/>
</g>
</svg>
